<?xml version="1.0" encoding="UTF-8"?>
<svg xmlns="http://www.w3.org/2000/svg" xmlns:xlink="http://www.w3.org/1999/xlink" width="15pt" height="14pt" viewBox="0 0 15 14" version="1.1">
<g id="surface1">
<path style=" stroke:none;fill-rule:nonzero;fill:rgb(0%,0%,0%);fill-opacity:1;" d="M 11.140625 0.0234375 C 10.832031 0.078125 10.632812 0.175781 10.433594 0.371094 C 10.175781 0.625 10.054688 0.921875 10.070312 1.277344 C 10.082031 1.589844 10.207031 1.867188 10.429688 2.085938 C 10.695312 2.351562 11.058594 2.476562 11.4375 2.441406 C 11.589844 2.429688 11.707031 2.398438 11.84375 2.335938 C 11.988281 2.269531 12.070312 2.214844 12.183594 2.109375 C 12.40625 1.902344 12.535156 1.636719 12.5625 1.335938 C 12.605469 0.84375 12.347656 0.382812 11.902344 0.152344 C 11.773438 0.0898438 11.660156 0.0507812 11.488281 0.0234375 C 11.320312 -0.00390625 11.292969 -0.00390625 11.140625 0.0234375 Z M 11.140625 0.0234375 "/>
<path style=" stroke:none;fill-rule:nonzero;fill:rgb(0%,0%,0%);fill-opacity:1;" d="M 6.621094 2.144531 C 6.578125 2.152344 6.515625 2.167969 6.476562 2.179688 C 6.320312 2.238281 6.34375 2.214844 5.152344 3.546875 C 4.539062 4.234375 4.015625 4.828125 3.988281 4.863281 C 3.921875 4.957031 3.886719 5.058594 3.886719 5.1875 C 3.886719 5.367188 3.941406 5.496094 4.070312 5.625 C 4.207031 5.753906 4.34375 5.804688 4.546875 5.796875 C 4.671875 5.792969 4.765625 5.761719 4.867188 5.695312 C 4.90625 5.667969 5.21875 5.324219 5.929688 4.527344 C 6.480469 3.902344 6.941406 3.390625 6.953125 3.382812 C 6.976562 3.363281 8.085938 3.367188 8.09375 3.382812 C 8.097656 3.394531 4.042969 7.988281 3.808594 8.238281 L 3.765625 8.285156 L 2.261719 8.277344 C 0.554688 8.273438 0.648438 8.269531 0.453125 8.359375 C 0.277344 8.441406 0.136719 8.589844 0.0703125 8.753906 C 0.0390625 8.832031 0 8.996094 0 9.046875 C 0 9.125 0.0585938 9.328125 0.109375 9.421875 C 0.183594 9.558594 0.3125 9.683594 0.457031 9.753906 C 0.65625 9.847656 0.511719 9.839844 2.632812 9.839844 C 4.355469 9.835938 4.515625 9.832031 4.617188 9.8125 C 4.835938 9.773438 5.046875 9.6875 5.167969 9.589844 C 5.191406 9.566406 5.589844 9.136719 6.054688 8.636719 C 6.515625 8.132812 6.898438 7.722656 6.90625 7.71875 C 6.921875 7.71875 8.84375 9.527344 8.863281 9.558594 C 8.867188 9.570312 8.847656 9.675781 8.820312 9.808594 C 8.789062 9.9375 8.675781 10.425781 8.566406 10.894531 C 8.457031 11.367188 8.300781 12.039062 8.222656 12.390625 C 8.140625 12.742188 8.070312 13.070312 8.0625 13.113281 C 8.027344 13.460938 8.210938 13.773438 8.535156 13.914062 C 8.613281 13.949219 8.800781 13.996094 8.867188 13.996094 C 8.917969 13.996094 9.085938 13.957031 9.164062 13.925781 C 9.261719 13.890625 9.378906 13.808594 9.457031 13.722656 C 9.546875 13.628906 9.621094 13.484375 9.65625 13.339844 C 9.675781 13.242188 9.867188 12.417969 10.230469 10.839844 C 10.546875 9.460938 10.582031 9.308594 10.625 9.136719 C 10.664062 8.980469 10.667969 8.953125 10.667969 8.796875 C 10.671875 8.597656 10.648438 8.503906 10.566406 8.351562 C 10.519531 8.261719 10.484375 8.226562 9.636719 7.402344 C 9.128906 6.910156 8.753906 6.539062 8.753906 6.527344 C 8.753906 6.507812 10.609375 4.40625 10.625 4.40625 C 10.632812 4.40625 10.914062 4.679688 11.257812 5.011719 C 11.648438 5.394531 11.902344 5.636719 11.945312 5.664062 C 12.183594 5.8125 12.480469 5.796875 12.738281 5.621094 C 12.804688 5.574219 14.324219 4.097656 14.753906 3.660156 C 14.902344 3.511719 14.933594 3.460938 14.976562 3.308594 C 15.007812 3.199219 15.007812 3.164062 14.976562 3.050781 C 14.941406 2.914062 14.890625 2.824219 14.796875 2.734375 C 14.585938 2.527344 14.277344 2.488281 14.015625 2.632812 C 13.984375 2.652344 13.644531 2.972656 13.132812 3.46875 L 12.304688 4.273438 L 11.304688 3.304688 C 10.757812 2.769531 10.28125 2.3125 10.246094 2.292969 C 10.175781 2.242188 10.0625 2.1875 9.96875 2.160156 C 9.902344 2.144531 9.789062 2.140625 8.296875 2.140625 C 7.417969 2.136719 6.664062 2.140625 6.621094 2.144531 Z M 6.621094 2.144531 "/>
</g>
</svg>
